<svg xmlns="http://www.w3.org/2000/svg" xmlns:xlink="http://www.w3.org/1999/xlink" version="1.1" id="Layer_1" x="0px" y="0px" width="100%" viewBox="0 0 192 192" enable-background="new 0 0 192 192" xml:space="preserve">
<path fill="#f76767" opacity="1.000000" stroke="none" d=" M27.918919,134.947891   C12.574776,98.863396 22.204159,59.728180 51.841927,37.242805   C53.702560,35.831192 55.721977,32.089966 58.741230,36.128365   C62.752979,41.494270 62.762264,42.862499 58.361477,46.328899   C40.414192,60.465572 31.263897,79.248352 31.521023,101.782104   C31.943811,138.834076 60.607391,166.159775 92.553459,169.907516   C105.040878,171.372467 116.683228,169.328995 128.150909,164.861710   C132.627350,163.117874 134.138153,164.122849 136.545761,170.116684   C138.155579,174.124390 134.604187,174.205292 132.689117,175.029770   C94.541122,191.453522 47.604946,176.417404 27.918919,134.947891  z"/>
<path fill="#f76767" opacity="1.000000" stroke="none" d=" M124.761612,23.946682   C156.985458,35.245014 176.446548,57.477642 180.748428,90.826988   C184.765533,121.968697 173.156158,147.609192 147.799133,166.629135   C147.406326,166.923767 146.937653,167.131577 146.479721,167.319977   C146.178864,167.443756 145.833588,167.459625 145.451447,167.535019   C143.453781,166.632812 143.160339,164.408478 141.971161,162.864517   C139.805176,160.052322 140.348206,158.086716 143.256058,155.871414   C157.061264,145.354050 165.402374,131.401611 169.132095,114.451149   C177.474701,76.536598 149.275513,36.958103 110.781273,32.233723   C98.002686,30.665413 85.926086,32.264126 74.169937,37.088448   C68.431023,39.443497 68.476700,34.124565 66.698997,31.543631   C64.472885,28.311680 67.649048,27.631741 69.658524,26.781334   C87.532829,19.216997 105.806129,18.671507 124.761612,23.946682  z"/>
<path fill="#f76767" opacity="1.000000" stroke="none" d=" M92.562485,139.530960   C98.747780,141.128647 104.487877,140.708862 110.224083,139.334900   C118.460022,137.362198 119.112473,137.765076 121.826378,146.440338   C118.125839,149.487122 113.475609,150.369843 108.971992,150.988419   C74.421288,155.734070 50.353531,128.766022 50.572868,101.644714   C50.699036,86.043579 56.321659,73.191963 67.802162,62.820499   C69.222870,61.537037 70.652664,59.008263 73.170815,61.396248   C76.433426,64.490204 77.482002,69.097092 75.284988,71.246498   C72.065269,74.396439 68.979202,77.591614 66.784531,81.611099   C53.947739,105.121376 65.584038,131.715942 92.562485,139.530960  z"/>
<path fill="#f76767" opacity="1.000000" stroke="none" d=" M81.157532,56.639595   C81.281509,53.267784 83.976494,53.399311 85.841110,52.795712   C118.092644,42.355438 151.223648,66.616104 151.393814,100.561417   C151.462494,114.263107 146.852585,125.960800 137.606995,135.916809   C135.588547,138.090378 133.508575,140.274902 130.525223,141.382889   C127.864014,139.770401 127.256493,136.809723 125.839973,134.455124   C124.356995,131.990021 126.755928,130.912766 128.092712,129.601578   C149.236877,108.862213 142.297272,74.617363 114.743614,64.144386   C107.616852,61.435551 100.292519,60.643974 92.700989,62.452850   C84.993782,64.289291 84.950844,64.109085 81.157532,56.639595  z"/>
</svg>